<?xml version="1.0" encoding="utf-8"?>
<!-- Generator: Adobe Illustrator 19.0.0, SVG Export Plug-In . SVG Version: 6.00 Build 0)  -->
<svg version="1.1" id="Layer_1" focusable="false" xmlns="http://www.w3.org/2000/svg" xmlns:xlink="http://www.w3.org/1999/xlink"
	 x="0px" y="0px" viewBox="-39 272.5 16 17" style="enable-background:new -39 272.5 16 17;" xml:space="preserve">
<path d="M-26.5,273.5v1.4c0,0.3-0.3,0.5-0.6,0.5H-35c-0.3,0-0.6-0.2-0.6-0.5v-1.4c0-0.3,0.3-0.5,0.6-0.5h7.9
	C-26.7,272.9-26.5,273.2-26.5,273.5z M-38.3,279.8h14.7c0.3,0,0.6-0.2,0.6-0.5v-1.4c0-0.3-0.3-0.5-0.6-0.5h-14.7
	c-0.3,0-0.6,0.2-0.6,0.5v1.4C-38.9,279.5-38.6,279.8-38.3,279.8z M-38.3,288.5h14.7c0.3,0,0.6-0.2,0.6-0.5v-1.4
	c0-0.3-0.3-0.5-0.6-0.5h-14.7c-0.3,0-0.6,0.2-0.6,0.5v1.4C-38.9,288.3-38.6,288.5-38.3,288.5z M-27,281.7H-35
	c-0.3,0-0.6,0.2-0.6,0.5v1.4c0,0.3,0.3,0.5,0.6,0.5h7.9c0.3,0,0.6-0.2,0.6-0.5v-1.4C-26.5,281.9-26.7,281.7-27,281.7z"/>
</svg>
